<?xml version="1.0" encoding="UTF-8"?>
<svg xmlns="http://www.w3.org/2000/svg" xmlns:xlink="http://www.w3.org/1999/xlink" width="165pt" height="82.499998pt" viewBox="0 0 165 82.499998" version="1.2">
<defs>
<clipPath id="clip1">
  <path d="M 0.496094 0 L 164.503906 0 L 164.503906 82.003906 L 0.496094 82.003906 Z M 0.496094 0 "/>
</clipPath>
<clipPath id="clip2">
  <path d="M 129 25.109375 L 138 25.109375 L 138 45 L 129 45 Z M 129 25.109375 "/>
</clipPath>
<clipPath id="clip3">
  <path d="M 151 50 L 156 50 L 156 57.164062 L 151 57.164062 Z M 151 50 "/>
</clipPath>
<clipPath id="clip4">
  <path d="M 142 25.109375 L 146 25.109375 L 146 45 L 142 45 Z M 142 25.109375 "/>
</clipPath>
<clipPath id="clip5">
  <path d="M 148 25.109375 L 160.863281 25.109375 L 160.863281 45 L 148 45 Z M 148 25.109375 "/>
</clipPath>
<clipPath id="clip6">
  <path d="M 24 46 L 36 46 L 36 57.164062 L 24 57.164062 Z M 24 46 "/>
</clipPath>
<clipPath id="clip7">
  <path d="M 24 25.109375 L 36 25.109375 L 36 37 L 24 37 Z M 24 25.109375 "/>
</clipPath>
<clipPath id="clip8">
  <path d="M 4 46 L 16 46 L 16 57.164062 L 4 57.164062 Z M 4 46 "/>
</clipPath>
<clipPath id="clip9">
  <path d="M 4 25.109375 L 16 25.109375 L 16 37 L 4 37 Z M 4 25.109375 "/>
</clipPath>
</defs>
<g id="surface1">
<g clip-path="url(#clip1)" clip-rule="nonzero">
<path style=" stroke:none;fill-rule:nonzero;fill:rgb(100%,100%,100%);fill-opacity:1;" d="M 0.496094 0 L 164.503906 0 L 164.503906 171.460938 L 0.496094 171.460938 Z M 0.496094 0 "/>
<path style=" stroke:none;fill-rule:nonzero;fill:rgb(100%,100%,100%);fill-opacity:1;" d="M 0.496094 0 L 164.503906 0 L 164.503906 82.003906 L 0.496094 82.003906 Z M 0.496094 0 "/>
<path style=" stroke:none;fill-rule:nonzero;fill:rgb(100%,100%,100%);fill-opacity:1;" d="M 0.496094 0 L 164.503906 0 L 164.503906 82.003906 L 0.496094 82.003906 Z M 0.496094 0 "/>
</g>
<path style=" stroke:none;fill-rule:nonzero;fill:rgb(33.729553%,33.729553%,32.939148%);fill-opacity:1;" d="M 45.492188 38.035156 C 45.492188 39.683594 45.820312 41 46.480469 41.984375 C 47.136719 42.96875 48.121094 43.460938 49.429688 43.460938 C 50.398438 43.460938 51.203125 43.238281 51.84375 42.789062 C 52.488281 42.339844 52.984375 41.726562 53.332031 40.9375 L 53.332031 34.578125 C 53 33.773438 52.523438 33.121094 51.902344 32.621094 C 51.28125 32.117188 50.464844 31.867188 49.453125 31.867188 C 48.144531 31.867188 47.160156 32.417969 46.492188 33.515625 C 45.824219 34.613281 45.492188 36.03125 45.492188 37.773438 Z M 44.003906 37.769531 C 44.003906 35.582031 44.460938 33.828125 45.375 32.519531 C 46.289062 31.203125 47.558594 30.546875 49.179688 30.546875 C 50.136719 30.546875 50.960938 30.761719 51.660156 31.1875 C 52.359375 31.613281 52.9375 32.214844 53.390625 32.992188 L 53.566406 30.800781 L 54.820312 30.800781 L 54.820312 44.332031 C 54.820312 46.097656 54.355469 47.492188 53.417969 48.519531 C 52.480469 49.539062 51.175781 50.050781 49.503906 50.050781 C 48.859375 50.050781 48.167969 49.96875 47.4375 49.808594 C 46.703125 49.648438 46.0625 49.429688 45.515625 49.152344 L 45.914062 47.871094 C 46.453125 48.132812 47.015625 48.335938 47.609375 48.476562 C 48.203125 48.621094 48.824219 48.695312 49.480469 48.695312 C 50.753906 48.695312 51.714844 48.3125 52.359375 47.542969 C 53.007812 46.773438 53.332031 45.707031 53.332031 44.335938 L 53.332031 42.597656 C 52.875 43.300781 52.296875 43.839844 51.601562 44.214844 C 50.90625 44.589844 50.09375 44.777344 49.15625 44.777344 C 47.542969 44.777344 46.277344 44.167969 45.367188 42.941406 C 44.457031 41.71875 44.003906 40.082031 44.003906 38.039062 Z M 44.003906 37.769531 "/>
<path style=" stroke:none;fill-rule:nonzero;fill:rgb(33.729553%,33.729553%,32.939148%);fill-opacity:1;" d="M 63.925781 31.839844 C 62.835938 31.839844 61.914062 32.265625 61.164062 33.125 C 60.414062 33.984375 59.976562 35.058594 59.851562 36.351562 L 59.878906 36.414062 L 67.753906 36.414062 L 67.753906 36.035156 C 67.753906 34.84375 67.410156 33.847656 66.722656 33.042969 C 66.035156 32.242188 65.101562 31.839844 63.925781 31.839844 Z M 64.125 44.777344 C 62.4375 44.777344 61.035156 44.144531 59.929688 42.882812 C 58.816406 41.621094 58.261719 40.011719 58.261719 38.0625 L 58.261719 37.363281 C 58.261719 35.40625 58.816406 33.777344 59.921875 32.484375 C 61.027344 31.195312 62.363281 30.546875 63.925781 30.546875 C 65.574219 30.546875 66.871094 31.078125 67.816406 32.144531 C 68.757812 33.207031 69.230469 34.628906 69.230469 36.402344 L 69.230469 37.695312 L 59.742188 37.695312 L 59.742188 38.0625 C 59.742188 39.601562 60.144531 40.890625 60.953125 41.933594 C 61.761719 42.976562 62.816406 43.5 64.125 43.5 C 65.046875 43.5 65.832031 43.367188 66.488281 43.105469 C 67.140625 42.84375 67.699219 42.46875 68.164062 41.980469 L 68.796875 43.015625 C 68.292969 43.558594 67.65625 43.988281 66.886719 44.304688 C 66.113281 44.621094 65.195312 44.777344 64.125 44.777344 Z M 64.125 44.777344 "/>
<path style=" stroke:none;fill-rule:nonzero;fill:rgb(33.729553%,33.729553%,32.939148%);fill-opacity:1;" d="M 75.308594 26.050781 L 75.308594 30.800781 L 78.265625 30.800781 L 78.265625 32.042969 L 75.308594 32.042969 L 75.308594 40.734375 C 75.308594 41.628906 75.464844 42.1875 75.785156 42.5625 C 76.105469 42.941406 76.527344 43.117188 77.058594 43.128906 C 77.621094 43.140625 78.390625 43.03125 78.769531 42.914062 L 78.773438 44.195312 C 78.523438 44.304688 78.222656 44.390625 77.867188 44.449219 C 77.507812 44.507812 77.152344 44.539062 76.796875 44.539062 C 75.855469 44.539062 75.117188 44.234375 74.589844 43.625 C 74.066406 43.015625 73.800781 42.054688 73.800781 40.734375 L 73.800781 32.042969 L 71.492188 32.042969 L 71.492188 30.800781 L 73.800781 30.800781 L 73.800781 26.050781 Z M 75.308594 26.050781 "/>
<path style=" stroke:none;fill-rule:nonzero;fill:rgb(33.729553%,33.729553%,32.939148%);fill-opacity:1;" d="M 100.820312 26.058594 L 100.820312 28.1875 L 98.882812 28.566406 L 98.882812 44.511719 L 95.265625 44.511719 L 87.960938 32.09375 L 87.886719 32.105469 L 87.886719 42.234375 L 89.824219 42.613281 L 89.824219 44.511719 L 82.335938 44.511719 L 82.335938 42.613281 L 84.261719 42.234375 L 84.261719 28.566406 L 82.335938 28.1875 L 82.335938 26.058594 L 87.886719 26.058594 L 95.195312 38.375 L 95.269531 38.464844 L 95.269531 28.566406 L 93.332031 28.1875 L 93.332031 26.058594 Z M 100.820312 26.058594 "/>
<path style=" stroke:none;fill-rule:nonzero;fill:rgb(33.729553%,33.729553%,32.939148%);fill-opacity:1;" d="M 107.164062 33.398438 C 106.492188 33.398438 105.964844 33.660156 105.574219 34.183594 C 105.183594 34.707031 104.945312 35.398438 104.851562 36.25 L 104.890625 36.3125 L 109.335938 36.3125 L 109.335938 35.984375 C 109.335938 35.195312 109.15625 34.570312 108.796875 34.101562 C 108.4375 33.632812 107.894531 33.398438 107.164062 33.398438 Z M 107.992188 44.777344 C 106.054688 44.792969 104 44.144531 102.839844 42.878906 C 101.683594 41.609375 101.101562 40 101.101562 38.046875 L 101.101562 37.542969 C 101.101562 35.507812 101.648438 33.828125 102.746094 32.511719 C 103.84375 31.195312 105.316406 30.539062 107.164062 30.546875 C 108.976562 30.546875 110.382812 31.105469 111.386719 32.21875 C 112.390625 33.335938 112.890625 34.84375 112.890625 36.742188 L 112.890625 38.757812 L 104.867188 38.757812 L 104.839844 38.835938 C 104.90625 39.738281 105.164062 40.519531 105.726562 41.066406 C 106.28125 41.597656 107.386719 42.277344 108.535156 42.277344 C 110.078125 42.277344 110.910156 42.046875 111.878906 41.660156 L 112.46875 43.804688 C 111.226562 44.390625 109.957031 44.761719 107.992188 44.777344 Z M 107.992188 44.777344 "/>
<path style=" stroke:none;fill-rule:nonzero;fill:rgb(33.729553%,33.729553%,32.939148%);fill-opacity:1;" d="M 114.011719 42.554688 L 115.269531 42.351562 L 118.921875 37.582031 L 115.390625 33.097656 L 114.136719 32.878906 L 114.136719 30.800781 L 120.1875 30.800781 L 120.1875 32.878906 L 119.023438 33.039062 L 120.996094 35.730469 L 122.929688 33.039062 L 121.738281 32.878906 L 121.738281 30.800781 L 127.816406 30.800781 L 127.816406 32.878906 L 126.597656 33.097656 L 123.144531 37.582031 L 126.785156 42.351562 L 128.050781 42.554688 L 128.050781 44.511719 L 121.902344 44.511719 L 121.902344 42.644531 L 123.132812 42.492188 L 121.042969 39.46875 L 118.917969 42.503906 L 120 42.644531 L 120 44.511719 L 114.011719 44.511719 Z M 114.011719 42.554688 "/>
<g clip-path="url(#clip2)" clip-rule="nonzero">
<path style=" stroke:none;fill-rule:nonzero;fill:rgb(33.729553%,33.729553%,32.939148%);fill-opacity:1;" d="M 134.863281 25.980469 L 134.863281 30.800781 L 137.226562 30.800781 L 137.226562 32.996094 L 134.863281 32.996094 L 134.863281 40.890625 C 134.863281 41.421875 134.972656 41.800781 135.1875 42.03125 C 135.402344 42.257812 135.683594 42.394531 136.046875 42.445312 C 136.300781 42.480469 136.773438 42.46875 137.355469 42.378906 L 137.664062 44.382812 C 137.148438 44.496094 136.546875 44.617188 135.152344 44.617188 C 133.898438 44.617188 133.238281 44.425781 132.566406 43.726562 C 131.890625 43.023438 131.550781 42.097656 131.550781 40.578125 L 131.550781 32.992188 L 129.574219 32.992188 L 129.574219 30.800781 L 131.550781 30.800781 L 131.550781 25.980469 Z M 134.863281 25.980469 "/>
</g>
<path style=" stroke:none;fill-rule:nonzero;fill:rgb(33.729553%,33.729553%,32.939148%);fill-opacity:1;" d="M 86.527344 51.796875 L 86.09375 51.796875 L 86.03125 51.109375 C 85.898438 50.964844 85.730469 50.855469 85.527344 50.777344 C 85.328125 50.699219 85.09375 50.660156 84.832031 50.660156 C 84.445312 50.660156 84.15625 50.746094 83.960938 50.914062 C 83.769531 51.085938 83.671875 51.285156 83.671875 51.515625 C 83.671875 51.738281 83.757812 51.925781 83.921875 52.074219 C 84.089844 52.222656 84.421875 52.351562 84.921875 52.460938 C 85.488281 52.589844 85.914062 52.769531 86.199219 52.992188 C 86.484375 53.214844 86.625 53.519531 86.625 53.90625 C 86.625 54.3125 86.460938 54.640625 86.140625 54.890625 C 85.816406 55.144531 85.390625 55.269531 84.859375 55.269531 C 84.503906 55.269531 84.183594 55.21875 83.890625 55.117188 C 83.601562 55.015625 83.351562 54.875 83.136719 54.691406 L 83.136719 53.707031 L 83.566406 53.707031 L 83.640625 54.402344 C 83.785156 54.546875 83.960938 54.652344 84.179688 54.714844 C 84.394531 54.78125 84.621094 54.8125 84.859375 54.8125 C 85.242188 54.8125 85.542969 54.726562 85.765625 54.554688 C 85.988281 54.382812 86.097656 54.175781 86.097656 53.933594 C 86.097656 53.703125 86.003906 53.503906 85.820312 53.332031 C 85.636719 53.160156 85.304688 53.019531 84.824219 52.914062 C 84.253906 52.785156 83.832031 52.621094 83.554688 52.410156 C 83.28125 52.199219 83.140625 51.910156 83.140625 51.53125 C 83.140625 51.160156 83.296875 50.84375 83.605469 50.585938 C 83.917969 50.328125 84.324219 50.199219 84.832031 50.199219 C 85.183594 50.199219 85.503906 50.253906 85.792969 50.367188 C 86.085938 50.476562 86.320312 50.625 86.503906 50.808594 Z M 86.527344 51.796875 "/>
<path style=" stroke:none;fill-rule:nonzero;fill:rgb(33.729553%,33.729553%,32.939148%);fill-opacity:1;" d="M 89.632812 54.8125 C 89.984375 54.8125 90.292969 54.710938 90.5625 54.507812 C 90.828125 54.300781 90.964844 54.015625 90.964844 53.652344 L 91.433594 53.652344 L 91.441406 53.679688 C 91.457031 54.132812 91.28125 54.507812 90.914062 54.8125 C 90.546875 55.117188 90.121094 55.269531 89.632812 55.269531 C 88.984375 55.269531 88.480469 55.042969 88.125 54.585938 C 87.765625 54.128906 87.589844 53.542969 87.589844 52.828125 L 87.589844 52.636719 C 87.589844 51.929688 87.765625 51.34375 88.125 50.886719 C 88.480469 50.429688 88.984375 50.199219 89.628906 50.199219 C 89.996094 50.199219 90.335938 50.269531 90.640625 50.414062 C 90.949219 50.554688 91.199219 50.746094 91.390625 50.992188 L 91.410156 52.054688 L 90.960938 52.054688 L 90.875 51.1875 C 90.734375 51.027344 90.558594 50.898438 90.347656 50.804688 C 90.136719 50.707031 89.898438 50.660156 89.628906 50.660156 C 89.117188 50.660156 88.734375 50.847656 88.488281 51.222656 C 88.242188 51.597656 88.121094 52.070312 88.121094 52.636719 L 88.121094 52.828125 C 88.121094 53.40625 88.242188 53.878906 88.488281 54.253906 C 88.730469 54.625 89.113281 54.8125 89.632812 54.8125 Z M 89.632812 54.8125 "/>
<path style=" stroke:none;fill-rule:nonzero;fill:rgb(33.729553%,33.729553%,32.939148%);fill-opacity:1;" d="M 93.992188 54.789062 C 94.375 54.789062 94.710938 54.699219 95.003906 54.519531 C 95.296875 54.339844 95.507812 54.105469 95.636719 53.820312 L 95.636719 52.839844 L 94.570312 52.839844 C 94.089844 52.839844 93.707031 52.941406 93.417969 53.144531 C 93.128906 53.347656 92.988281 53.605469 92.988281 53.914062 C 92.988281 54.175781 93.074219 54.386719 93.253906 54.550781 C 93.433594 54.710938 93.679688 54.789062 93.992188 54.789062 Z M 95.734375 55.175781 C 95.699219 55.007812 95.671875 54.867188 95.660156 54.746094 C 95.644531 54.625 95.636719 54.503906 95.636719 54.378906 C 95.460938 54.636719 95.222656 54.847656 94.929688 55.015625 C 94.632812 55.183594 94.300781 55.269531 93.933594 55.269531 C 93.464844 55.269531 93.101562 55.144531 92.84375 54.898438 C 92.589844 54.652344 92.460938 54.320312 92.460938 53.898438 C 92.460938 53.445312 92.648438 53.089844 93.03125 52.824219 C 93.410156 52.558594 93.925781 52.425781 94.578125 52.425781 L 95.636719 52.425781 L 95.636719 51.78125 C 95.636719 51.429688 95.527344 51.15625 95.308594 50.957031 C 95.085938 50.761719 94.78125 50.660156 94.386719 50.660156 C 94.121094 50.660156 93.875 50.699219 93.65625 50.773438 C 93.4375 50.84375 93.253906 50.945312 93.105469 51.070312 L 93.0625 51.726562 L 92.625 51.726562 L 92.628906 50.785156 C 92.847656 50.613281 93.113281 50.472656 93.421875 50.363281 C 93.730469 50.253906 94.058594 50.199219 94.40625 50.199219 C 94.933594 50.199219 95.359375 50.335938 95.679688 50.613281 C 96.003906 50.886719 96.164062 51.277344 96.164062 51.789062 L 96.164062 54.191406 C 96.164062 54.289062 96.164062 54.386719 96.171875 54.476562 C 96.175781 54.570312 96.183594 54.65625 96.199219 54.746094 L 96.675781 54.777344 L 96.675781 55.175781 Z M 95.734375 55.175781 "/>
<path style=" stroke:none;fill-rule:nonzero;fill:rgb(33.729553%,33.729553%,32.939148%);fill-opacity:1;" d="M 97.324219 48.535156 L 97.324219 48.132812 L 98.570312 48.132812 L 98.570312 54.71875 L 99.292969 54.777344 L 99.292969 55.175781 L 97.324219 55.175781 L 97.324219 54.777344 L 98.042969 54.71875 L 98.042969 48.59375 Z M 97.324219 48.535156 "/>
<path style=" stroke:none;fill-rule:nonzero;fill:rgb(33.729553%,33.729553%,32.939148%);fill-opacity:1;" d="M 101.691406 54.789062 C 102.074219 54.789062 102.410156 54.699219 102.703125 54.519531 C 102.996094 54.339844 103.207031 54.105469 103.335938 53.820312 L 103.335938 52.839844 L 102.269531 52.839844 C 101.789062 52.839844 101.40625 52.941406 101.117188 53.144531 C 100.828125 53.347656 100.683594 53.605469 100.683594 53.914062 C 100.683594 54.175781 100.773438 54.386719 100.953125 54.550781 C 101.132812 54.710938 101.378906 54.789062 101.691406 54.789062 Z M 103.433594 55.175781 C 103.398438 55.007812 103.371094 54.867188 103.359375 54.746094 C 103.34375 54.625 103.335938 54.503906 103.335938 54.378906 C 103.160156 54.636719 102.921875 54.847656 102.628906 55.015625 C 102.332031 55.183594 102 55.269531 101.632812 55.269531 C 101.164062 55.269531 100.800781 55.144531 100.542969 54.898438 C 100.289062 54.652344 100.160156 54.320312 100.160156 53.898438 C 100.160156 53.445312 100.347656 53.089844 100.730469 52.824219 C 101.109375 52.558594 101.625 52.425781 102.277344 52.425781 L 103.335938 52.425781 L 103.335938 51.78125 C 103.335938 51.429688 103.226562 51.15625 103.007812 50.957031 C 102.785156 50.761719 102.480469 50.660156 102.082031 50.660156 C 101.816406 50.660156 101.574219 50.699219 101.355469 50.773438 C 101.136719 50.84375 100.953125 50.945312 100.804688 51.070312 L 100.761719 51.726562 L 100.324219 51.726562 L 100.328125 50.785156 C 100.546875 50.613281 100.8125 50.472656 101.121094 50.363281 C 101.429688 50.253906 101.757812 50.199219 102.105469 50.199219 C 102.632812 50.199219 103.058594 50.335938 103.378906 50.613281 C 103.703125 50.886719 103.863281 51.277344 103.863281 51.789062 L 103.863281 54.191406 C 103.863281 54.289062 103.863281 54.386719 103.867188 54.476562 C 103.875 54.570312 103.882812 54.65625 103.898438 54.746094 L 104.375 54.777344 L 104.375 55.175781 Z M 103.433594 55.175781 "/>
<path style=" stroke:none;fill-rule:nonzero;fill:rgb(33.729553%,33.729553%,32.939148%);fill-opacity:1;" d="M 108.707031 52.773438 C 108.707031 52.148438 108.589844 51.644531 108.351562 51.253906 C 108.117188 50.863281 107.769531 50.671875 107.308594 50.671875 C 106.9375 50.671875 106.640625 50.761719 106.414062 50.949219 C 106.1875 51.136719 106.019531 51.375 105.910156 51.667969 L 105.910156 53.875 C 106.027344 54.15625 106.207031 54.382812 106.441406 54.550781 C 106.675781 54.714844 106.964844 54.800781 107.316406 54.800781 C 107.777344 54.800781 108.125 54.625 108.355469 54.277344 C 108.589844 53.925781 108.707031 53.457031 108.707031 52.867188 Z M 109.242188 52.867188 C 109.242188 53.601562 109.078125 54.183594 108.753906 54.617188 C 108.429688 55.050781 107.984375 55.269531 107.414062 55.269531 C 107.0625 55.269531 106.761719 55.199219 106.507812 55.054688 C 106.253906 54.910156 106.050781 54.707031 105.894531 54.4375 L 105.835938 55.175781 L 105.382812 55.175781 L 105.382812 48.59375 L 104.664062 48.535156 L 104.664062 48.132812 L 105.910156 48.132812 L 105.910156 51.058594 C 106.070312 50.785156 106.273438 50.574219 106.523438 50.425781 C 106.769531 50.273438 107.0625 50.199219 107.40625 50.199219 C 107.980469 50.199219 108.429688 50.433594 108.753906 50.902344 C 109.078125 51.371094 109.242188 51.996094 109.242188 52.773438 Z M 109.242188 52.867188 "/>
<path style=" stroke:none;fill-rule:nonzero;fill:rgb(33.729553%,33.729553%,32.939148%);fill-opacity:1;" d="M 109.988281 48.535156 L 109.988281 48.132812 L 111.238281 48.132812 L 111.238281 54.71875 L 111.960938 54.777344 L 111.960938 55.175781 L 109.988281 55.175781 L 109.988281 54.777344 L 110.710938 54.71875 L 110.710938 48.59375 Z M 109.988281 48.535156 "/>
<path style=" stroke:none;fill-rule:nonzero;fill:rgb(33.729553%,33.729553%,32.939148%);fill-opacity:1;" d="M 114.835938 50.660156 C 114.445312 50.660156 114.117188 50.8125 113.851562 51.117188 C 113.582031 51.425781 113.429688 51.808594 113.382812 52.269531 L 113.394531 52.289062 L 116.199219 52.289062 L 116.199219 52.15625 C 116.199219 51.730469 116.074219 51.375 115.832031 51.089844 C 115.585938 50.804688 115.253906 50.660156 114.835938 50.660156 Z M 114.90625 55.269531 C 114.304688 55.269531 113.804688 55.042969 113.410156 54.59375 C 113.015625 54.144531 112.816406 53.570312 112.816406 52.878906 L 112.816406 52.628906 C 112.816406 51.929688 113.015625 51.351562 113.410156 50.890625 C 113.800781 50.429688 114.277344 50.199219 114.835938 50.199219 C 115.421875 50.199219 115.882812 50.390625 116.21875 50.769531 C 116.554688 51.148438 116.722656 51.652344 116.722656 52.285156 L 116.722656 52.746094 L 113.34375 52.746094 L 113.34375 52.878906 C 113.34375 53.425781 113.488281 53.882812 113.777344 54.253906 C 114.0625 54.628906 114.441406 54.8125 114.90625 54.8125 C 115.234375 54.8125 115.511719 54.765625 115.746094 54.671875 C 115.980469 54.578125 116.179688 54.445312 116.34375 54.273438 L 116.570312 54.640625 C 116.390625 54.835938 116.164062 54.988281 115.886719 55.101562 C 115.613281 55.210938 115.285156 55.269531 114.90625 55.269531 Z M 114.90625 55.269531 "/>
<path style=" stroke:none;fill-rule:nonzero;fill:rgb(33.729553%,33.729553%,32.939148%);fill-opacity:1;" d="M 121.089844 49.039062 L 121.089844 50.289062 L 122.144531 50.289062 L 122.144531 50.734375 L 121.089844 50.734375 L 121.089844 53.914062 C 121.089844 54.234375 121.148438 54.460938 121.261719 54.59375 C 121.375 54.726562 121.527344 54.796875 121.714844 54.796875 C 121.800781 54.796875 121.882812 54.792969 121.964844 54.785156 C 122.046875 54.777344 122.140625 54.765625 122.246094 54.746094 L 122.324219 55.148438 C 122.238281 55.1875 122.128906 55.214844 122.003906 55.238281 C 121.875 55.257812 121.75 55.269531 121.621094 55.269531 C 121.285156 55.269531 121.023438 55.160156 120.835938 54.945312 C 120.648438 54.726562 120.554688 54.382812 120.554688 53.914062 L 120.554688 50.734375 L 119.734375 50.734375 L 119.734375 50.289062 L 120.554688 50.289062 L 120.554688 49.039062 Z M 121.089844 49.039062 "/>
<path style=" stroke:none;fill-rule:nonzero;fill:rgb(33.729553%,33.729553%,32.939148%);fill-opacity:1;" d="M 122.960938 48.535156 L 122.960938 48.132812 L 124.210938 48.132812 L 124.210938 51.125 C 124.371094 50.835938 124.582031 50.605469 124.847656 50.445312 C 125.113281 50.28125 125.421875 50.199219 125.777344 50.199219 C 126.28125 50.199219 126.667969 50.359375 126.9375 50.679688 C 127.207031 50.996094 127.34375 51.492188 127.34375 52.164062 L 127.34375 54.71875 L 128.0625 54.777344 L 128.0625 55.175781 L 126.089844 55.175781 L 126.089844 54.777344 L 126.8125 54.71875 L 126.8125 52.15625 C 126.8125 51.625 126.710938 51.246094 126.503906 51.015625 C 126.300781 50.785156 126.015625 50.671875 125.65625 50.671875 C 125.292969 50.671875 124.992188 50.765625 124.75 50.960938 C 124.503906 51.15625 124.324219 51.414062 124.210938 51.734375 L 124.210938 54.71875 L 124.933594 54.777344 L 124.933594 55.175781 L 122.960938 55.175781 L 122.960938 54.777344 L 123.683594 54.71875 L 123.683594 48.59375 Z M 122.960938 48.535156 "/>
<path style=" stroke:none;fill-rule:nonzero;fill:rgb(33.729553%,33.729553%,32.939148%);fill-opacity:1;" d="M 130.074219 48.890625 L 129.546875 48.890625 L 129.546875 48.132812 L 130.074219 48.132812 Z M 128.824219 54.777344 L 129.546875 54.71875 L 129.546875 50.75 L 128.824219 50.691406 L 128.824219 50.289062 L 130.074219 50.289062 L 130.074219 54.71875 L 130.792969 54.777344 L 130.792969 55.175781 L 128.824219 55.175781 Z M 128.824219 54.777344 "/>
<path style=" stroke:none;fill-rule:nonzero;fill:rgb(33.729553%,33.729553%,32.939148%);fill-opacity:1;" d="M 131.585938 54.777344 L 132.308594 54.71875 L 132.308594 50.75 L 131.585938 50.691406 L 131.585938 50.289062 L 132.777344 50.289062 L 132.824219 51.144531 C 132.980469 50.84375 133.1875 50.609375 133.445312 50.445312 C 133.707031 50.28125 134.015625 50.199219 134.375 50.199219 C 134.894531 50.199219 135.289062 50.363281 135.558594 50.6875 C 135.832031 51.007812 135.96875 51.515625 135.96875 52.199219 L 135.96875 54.71875 L 136.6875 54.777344 L 136.6875 55.175781 L 134.714844 55.175781 L 134.714844 54.777344 L 135.4375 54.71875 L 135.4375 52.203125 C 135.4375 51.644531 135.332031 51.25 135.128906 51.015625 C 134.921875 50.785156 134.632812 50.671875 134.253906 50.671875 C 133.882812 50.671875 133.578125 50.769531 133.34375 50.96875 C 133.109375 51.171875 132.941406 51.4375 132.839844 51.765625 L 132.839844 54.71875 L 133.558594 54.777344 L 133.558594 55.175781 L 131.585938 55.175781 Z M 131.585938 54.777344 "/>
<path style=" stroke:none;fill-rule:nonzero;fill:rgb(33.729553%,33.729553%,32.939148%);fill-opacity:1;" d="M 137.363281 48.535156 L 137.363281 48.132812 L 138.613281 48.132812 L 138.613281 52.332031 L 139.175781 52.332031 L 140.628906 50.746094 L 140.621094 50.722656 L 140.183594 50.691406 L 140.183594 50.289062 L 141.871094 50.289062 L 141.871094 50.691406 L 141.3125 50.746094 L 139.675781 52.519531 L 141.539062 54.726562 L 142.070312 54.777344 L 142.070312 55.175781 L 140.386719 55.175781 L 140.386719 54.777344 L 140.890625 54.746094 L 139.226562 52.796875 L 138.613281 52.796875 L 138.613281 54.71875 L 139.332031 54.777344 L 139.332031 55.175781 L 137.363281 55.175781 L 137.363281 54.777344 L 138.085938 54.71875 L 138.085938 48.59375 Z M 137.363281 48.535156 "/>
<path style=" stroke:none;fill-rule:nonzero;fill:rgb(33.729553%,33.729553%,32.939148%);fill-opacity:1;" d="M 144.015625 48.890625 L 143.488281 48.890625 L 143.488281 48.132812 L 144.015625 48.132812 Z M 142.765625 54.777344 L 143.488281 54.71875 L 143.488281 50.75 L 142.765625 50.691406 L 142.765625 50.289062 L 144.015625 50.289062 L 144.015625 54.71875 L 144.734375 54.777344 L 144.734375 55.175781 L 142.765625 55.175781 Z M 142.765625 54.777344 "/>
<path style=" stroke:none;fill-rule:nonzero;fill:rgb(33.729553%,33.729553%,32.939148%);fill-opacity:1;" d="M 145.527344 54.777344 L 146.25 54.71875 L 146.25 50.75 L 145.527344 50.691406 L 145.527344 50.289062 L 146.71875 50.289062 L 146.765625 51.144531 C 146.921875 50.84375 147.128906 50.609375 147.390625 50.445312 C 147.648438 50.28125 147.957031 50.199219 148.316406 50.199219 C 148.835938 50.199219 149.230469 50.363281 149.5 50.6875 C 149.773438 51.007812 149.910156 51.515625 149.910156 52.199219 L 149.910156 54.71875 L 150.628906 54.777344 L 150.628906 55.175781 L 148.65625 55.175781 L 148.65625 54.777344 L 149.378906 54.71875 L 149.378906 52.203125 C 149.378906 51.644531 149.273438 51.25 149.070312 51.015625 C 148.863281 50.785156 148.574219 50.671875 148.195312 50.671875 C 147.824219 50.671875 147.519531 50.769531 147.285156 50.96875 C 147.050781 51.171875 146.882812 51.4375 146.78125 51.765625 L 146.78125 54.71875 L 147.5 54.777344 L 147.5 55.175781 L 145.527344 55.175781 Z M 145.527344 54.777344 "/>
<g clip-path="url(#clip3)" clip-rule="nonzero">
<path style=" stroke:none;fill-rule:nonzero;fill:rgb(33.729553%,33.729553%,32.939148%);fill-opacity:1;" d="M 151.972656 52.867188 C 151.972656 53.453125 152.089844 53.925781 152.320312 54.273438 C 152.558594 54.625 152.90625 54.800781 153.375 54.800781 C 153.71875 54.800781 154.003906 54.71875 154.234375 54.558594 C 154.460938 54.402344 154.636719 54.179688 154.761719 53.902344 L 154.761719 51.636719 C 154.644531 51.351562 154.476562 51.117188 154.253906 50.9375 C 154.03125 50.757812 153.742188 50.671875 153.382812 50.671875 C 152.914062 50.671875 152.5625 50.867188 152.328125 51.257812 C 152.089844 51.648438 151.972656 52.152344 151.972656 52.773438 Z M 151.4375 52.773438 C 151.4375 51.996094 151.601562 51.371094 151.929688 50.902344 C 152.253906 50.433594 152.707031 50.199219 153.285156 50.199219 C 153.625 50.199219 153.917969 50.277344 154.167969 50.429688 C 154.417969 50.582031 154.621094 50.792969 154.785156 51.070312 L 154.847656 50.289062 L 155.292969 50.289062 L 155.292969 55.109375 C 155.292969 55.738281 155.125 56.238281 154.792969 56.601562 C 154.460938 56.964844 153.996094 57.148438 153.398438 57.148438 C 153.167969 57.148438 152.925781 57.117188 152.664062 57.0625 C 152.402344 57.003906 152.171875 56.925781 151.980469 56.824219 L 152.121094 56.371094 C 152.3125 56.464844 152.511719 56.535156 152.726562 56.585938 C 152.9375 56.636719 153.15625 56.664062 153.390625 56.664062 C 153.84375 56.664062 154.1875 56.527344 154.417969 56.253906 C 154.648438 55.980469 154.761719 55.597656 154.761719 55.109375 L 154.761719 54.492188 C 154.601562 54.742188 154.394531 54.933594 154.148438 55.066406 C 153.898438 55.203125 153.609375 55.269531 153.277344 55.269531 C 152.699219 55.269531 152.25 55.050781 151.925781 54.613281 C 151.601562 54.179688 151.4375 53.597656 151.4375 52.867188 Z M 151.4375 52.773438 "/>
</g>
<g clip-path="url(#clip4)" clip-rule="nonzero">
<path style=" stroke:none;fill-rule:nonzero;fill:rgb(90.979004%,32.159424%,12.939453%);fill-opacity:1;" d="M 142.058594 25.980469 L 145.46875 25.980469 L 145.46875 44.59375 L 142.058594 44.59375 Z M 142.058594 25.980469 "/>
</g>
<g clip-path="url(#clip5)" clip-rule="nonzero">
<path style=" stroke:none;fill-rule:nonzero;fill:rgb(90.979004%,32.159424%,12.939453%);fill-opacity:1;" d="M 160.21875 25.980469 L 160.21875 29.039062 L 155.8125 29.039062 L 155.8125 44.59375 L 152.386719 44.59375 L 152.386719 29.039062 L 148.007812 29.039062 L 148.007812 25.980469 Z M 160.21875 25.980469 "/>
</g>
<path style=" stroke:none;fill-rule:nonzero;fill:rgb(74.508667%,4.708862%,15.289307%);fill-opacity:1;" d="M 17.683594 41.703125 C 18.746094 41.703125 19.605469 42.578125 19.605469 43.660156 C 19.605469 44.742188 18.746094 45.621094 17.683594 45.621094 C 16.625 45.621094 15.761719 44.742188 15.761719 43.660156 C 15.761719 42.578125 16.625 41.703125 17.683594 41.703125 Z M 17.683594 41.703125 "/>
<path style=" stroke:none;fill-rule:nonzero;fill:rgb(33.729553%,33.729553%,32.939148%);fill-opacity:1;" d="M 17.683594 47.761719 C 15.46875 47.761719 13.667969 45.921875 13.667969 43.660156 C 13.667969 41.402344 15.46875 39.5625 17.683594 39.5625 C 19.898438 39.5625 21.703125 41.402344 21.703125 43.660156 C 21.703125 45.921875 19.898438 47.761719 17.683594 47.761719 Z M 23.242188 37.152344 L 6.75 37.152344 C 6.371094 38.4375 6.167969 39.796875 6.167969 41.207031 C 6.167969 49.019531 12.378906 55.351562 20.039062 55.351562 C 21.4375 55.351562 22.789062 55.140625 24.066406 54.746094 L 24.066406 37.992188 C 24.066406 37.527344 23.695312 37.152344 23.242188 37.152344 Z M 23.242188 37.152344 "/>
<path style=" stroke:none;fill-rule:nonzero;fill:rgb(88.62915%,0%,11.759949%);fill-opacity:1;" d="M 33.90625 41.203125 C 33.90625 33.390625 27.695312 27.058594 20.039062 27.058594 C 14.863281 27.058594 10.355469 29.949219 7.972656 34.230469 L 24.152344 34.230469 C 25.695312 34.230469 26.945312 35.507812 26.945312 37.078125 L 26.945312 53.46875 C 31.105469 51.027344 33.90625 46.453125 33.90625 41.203125 Z M 33.90625 41.203125 "/>
<g clip-path="url(#clip6)" clip-rule="nonzero">
<path style=" stroke:none;fill-rule:nonzero;fill:rgb(90.979004%,32.159424%,12.939453%);fill-opacity:1;" d="M 24.773438 57.300781 L 34.230469 57.300781 C 35.105469 57.300781 35.816406 56.578125 35.816406 55.683594 L 35.816406 46.035156 C 34.230469 51.429688 30.0625 55.683594 24.773438 57.300781 Z M 24.773438 57.300781 "/>
</g>
<g clip-path="url(#clip7)" clip-rule="nonzero">
<path style=" stroke:none;fill-rule:nonzero;fill:rgb(90.979004%,32.159424%,12.939453%);fill-opacity:1;" d="M 35.816406 36.375 L 35.816406 26.726562 C 35.816406 25.832031 35.105469 25.109375 34.230469 25.109375 L 24.773438 25.109375 C 30.0625 26.726562 34.230469 30.980469 35.816406 36.375 Z M 35.816406 36.375 "/>
</g>
<g clip-path="url(#clip8)" clip-rule="nonzero">
<path style=" stroke:none;fill-rule:nonzero;fill:rgb(33.729553%,33.729553%,32.939148%);fill-opacity:1;" d="M 4.257812 46.035156 L 4.257812 55.683594 C 4.257812 56.578125 4.96875 57.300781 5.84375 57.300781 L 15.300781 57.300781 C 10.011719 55.683594 5.84375 51.429688 4.257812 46.035156 Z M 4.257812 46.035156 "/>
</g>
<g clip-path="url(#clip9)" clip-rule="nonzero">
<path style=" stroke:none;fill-rule:nonzero;fill:rgb(90.979004%,32.159424%,12.939453%);fill-opacity:1;" d="M 15.300781 25.109375 L 5.84375 25.109375 C 4.96875 25.109375 4.257812 25.832031 4.257812 26.726562 L 4.257812 36.375 C 5.84375 30.980469 10.011719 26.726562 15.300781 25.109375 Z M 15.300781 25.109375 "/>
</g>
</g>
</svg>
