<?xml version="1.0" encoding="UTF-8"?>
<svg xmlns="http://www.w3.org/2000/svg" xmlns:xlink="http://www.w3.org/1999/xlink" width="165pt" height="82.499998pt" viewBox="0 0 165 82.499998" version="1.2">
<defs>
<clipPath id="clip1">
  <path d="M 0.496094 0 L 164.503906 0 L 164.503906 82.003906 L 0.496094 82.003906 Z M 0.496094 0 "/>
</clipPath>
<clipPath id="clip2">
  <path d="M 29.589844 57 L 45 57 L 45 73.800781 L 29.589844 73.800781 Z M 29.589844 57 "/>
</clipPath>
<clipPath id="clip3">
  <path d="M 47 57 L 59 57 L 59 73.800781 L 47 73.800781 Z M 47 57 "/>
</clipPath>
<clipPath id="clip4">
  <path d="M 61 57 L 71 57 L 71 73.800781 L 61 73.800781 Z M 61 57 "/>
</clipPath>
<clipPath id="clip5">
  <path d="M 73 57 L 88 57 L 88 73.800781 L 73 73.800781 Z M 73 57 "/>
</clipPath>
<clipPath id="clip6">
  <path d="M 91 57 L 103 57 L 103 73.800781 L 91 73.800781 Z M 91 57 "/>
</clipPath>
<clipPath id="clip7">
  <path d="M 105 57 L 121 57 L 121 73.800781 L 105 73.800781 Z M 105 57 "/>
</clipPath>
<clipPath id="clip8">
  <path d="M 121 57 L 135.191406 57 L 135.191406 73.800781 L 121 73.800781 Z M 121 57 "/>
</clipPath>
<clipPath id="clip9">
  <path d="M 80 8.199219 L 85 8.199219 L 85 13 L 80 13 Z M 80 8.199219 "/>
</clipPath>
</defs>
<g id="surface1">
<g clip-path="url(#clip1)" clip-rule="nonzero">
<path style=" stroke:none;fill-rule:nonzero;fill:rgb(100%,100%,100%);fill-opacity:1;" d="M 0.496094 0 L 164.503906 0 L 164.503906 89.457031 L 0.496094 89.457031 Z M 0.496094 0 "/>
<path style=" stroke:none;fill-rule:nonzero;fill:rgb(100%,100%,100%);fill-opacity:1;" d="M 0.496094 0 L 164.503906 0 L 164.503906 82.003906 L 0.496094 82.003906 Z M 0.496094 0 "/>
<path style=" stroke:none;fill-rule:nonzero;fill:rgb(100%,100%,100%);fill-opacity:1;" d="M 0.496094 0 L 164.503906 0 L 164.503906 82.003906 L 0.496094 82.003906 Z M 0.496094 0 "/>
</g>
<g clip-path="url(#clip2)" clip-rule="nonzero">
<path style=" stroke:none;fill-rule:evenodd;fill:rgb(88.238525%,31.759644%,0%);fill-opacity:1;" d="M 37.070312 59.671875 C 38.605469 59.671875 39.777344 60.175781 40.558594 61.183594 C 41.3125 62.191406 41.703125 63.675781 41.703125 65.609375 C 41.703125 67.59375 41.3125 69.082031 40.53125 70.089844 C 39.75 71.097656 38.578125 71.601562 37.042969 71.601562 C 35.507812 71.601562 34.335938 71.097656 33.527344 70.058594 C 32.746094 69.050781 32.355469 67.566406 32.355469 65.609375 C 32.355469 63.675781 32.746094 62.191406 33.554688 61.183594 C 34.335938 60.175781 35.507812 59.671875 37.070312 59.671875 Z M 37.070312 57.433594 C 34.671875 57.433594 32.828125 58.132812 31.546875 59.53125 C 30.234375 60.933594 29.589844 62.949219 29.589844 65.582031 C 29.589844 68.210938 30.234375 70.257812 31.519531 71.65625 C 32.800781 73.082031 34.644531 73.8125 37.042969 73.8125 C 39.417969 73.8125 41.230469 73.082031 42.542969 71.65625 C 43.824219 70.226562 44.464844 68.210938 44.464844 65.609375 C 44.464844 63.003906 43.824219 61.015625 42.542969 59.558594 C 41.257812 58.132812 39.417969 57.433594 37.070312 57.433594 Z M 37.070312 57.433594 "/>
</g>
<g clip-path="url(#clip3)" clip-rule="nonzero">
<path style=" stroke:none;fill-rule:evenodd;fill:rgb(88.238525%,31.759644%,0%);fill-opacity:1;" d="M 52.28125 59.839844 C 53.453125 59.839844 54.316406 60.0625 54.875 60.539062 C 55.433594 60.988281 55.714844 61.660156 55.714844 62.585938 C 55.714844 63.566406 55.40625 64.292969 54.765625 64.769531 C 54.152344 65.214844 53.175781 65.441406 51.835938 65.441406 L 50.464844 65.441406 L 50.464844 59.839844 Z M 47.871094 57.683594 L 47.871094 73.585938 L 50.464844 73.585938 L 50.464844 67.652344 L 52.113281 67.652344 C 54.121094 67.652344 55.65625 67.203125 56.746094 66.308594 C 57.835938 65.441406 58.363281 64.152344 58.363281 62.5 C 58.363281 60.90625 57.890625 59.699219 56.886719 58.890625 C 55.910156 58.078125 54.429688 57.683594 52.449219 57.683594 Z M 47.871094 57.683594 "/>
</g>
<g clip-path="url(#clip4)" clip-rule="nonzero">
<path style=" stroke:none;fill-rule:evenodd;fill:rgb(88.238525%,31.759644%,0%);fill-opacity:1;" d="M 61.546875 57.683594 L 61.546875 73.585938 L 70.503906 73.585938 L 70.503906 71.375 L 64.140625 71.375 L 64.140625 66.390625 L 70.113281 66.390625 L 70.113281 64.207031 L 64.140625 64.207031 L 64.140625 59.867188 L 70.503906 59.867188 L 70.503906 57.683594 Z M 61.546875 57.683594 "/>
</g>
<g clip-path="url(#clip5)" clip-rule="nonzero">
<path style=" stroke:none;fill-rule:evenodd;fill:rgb(88.238525%,31.759644%,0%);fill-opacity:1;" d="M 73.9375 57.683594 L 73.9375 73.585938 L 76.308594 73.585938 L 76.308594 65.328125 C 76.308594 64.207031 76.253906 62.976562 76.140625 61.605469 L 76.085938 60.90625 L 76.195312 60.90625 L 83.984375 73.585938 L 87.164062 73.585938 L 87.164062 57.683594 L 84.792969 57.683594 L 84.792969 66.027344 C 84.792969 66.617188 84.820312 67.429688 84.847656 68.464844 C 84.90625 69.527344 84.929688 70.117188 84.929688 70.285156 L 84.875 70.285156 L 77.089844 57.683594 Z M 73.9375 57.683594 "/>
</g>
<g clip-path="url(#clip6)" clip-rule="nonzero">
<path style=" stroke:none;fill-rule:evenodd;fill:rgb(88.238525%,31.759644%,0%);fill-opacity:1;" d="M 96.179688 59.867188 C 97.351562 59.867188 98.214844 60.035156 98.746094 60.34375 C 99.304688 60.679688 99.554688 61.242188 99.554688 61.96875 C 99.554688 62.808594 99.304688 63.394531 98.800781 63.730469 C 98.328125 64.070312 97.519531 64.265625 96.429688 64.265625 L 93.945312 64.265625 L 93.945312 59.867188 Z M 96.570312 66.363281 C 97.710938 66.363281 98.578125 66.558594 99.136719 66.953125 C 99.695312 67.371094 100.003906 67.988281 100.003906 68.800781 C 100.003906 69.695312 99.722656 70.367188 99.164062 70.789062 C 98.605469 71.179688 97.796875 71.40625 96.707031 71.40625 L 93.945312 71.40625 L 93.945312 66.363281 Z M 91.351562 57.683594 L 91.351562 73.585938 L 97.070312 73.585938 C 98.859375 73.585938 100.226562 73.195312 101.230469 72.382812 C 102.234375 71.570312 102.707031 70.453125 102.707031 69.023438 C 102.707031 67.960938 102.457031 67.121094 101.925781 66.503906 C 101.398438 65.886719 100.585938 65.46875 99.472656 65.242188 L 99.472656 65.160156 C 100.363281 64.992188 101.0625 64.601562 101.535156 63.984375 C 102.011719 63.367188 102.261719 62.585938 102.261719 61.660156 C 102.261719 60.289062 101.761719 59.28125 100.785156 58.636719 C 99.832031 57.992188 98.242188 57.683594 96.066406 57.683594 Z M 91.351562 57.683594 "/>
</g>
<g clip-path="url(#clip7)" clip-rule="nonzero">
<path style=" stroke:none;fill-rule:evenodd;fill:rgb(88.238525%,31.759644%,0%);fill-opacity:1;" d="M 112.699219 59.671875 C 114.234375 59.671875 115.40625 60.175781 116.1875 61.183594 C 116.96875 62.191406 117.359375 63.675781 117.359375 65.609375 C 117.359375 67.59375 116.96875 69.082031 116.160156 70.089844 C 115.378906 71.097656 114.234375 71.601562 112.671875 71.601562 C 111.136719 71.601562 109.964844 71.097656 109.183594 70.058594 C 108.402344 69.050781 107.984375 67.566406 107.984375 65.609375 C 107.984375 63.675781 108.402344 62.191406 109.183594 61.183594 C 109.964844 60.175781 111.136719 59.671875 112.699219 59.671875 Z M 112.699219 57.433594 C 110.300781 57.433594 108.457031 58.132812 107.171875 59.53125 C 105.890625 60.933594 105.246094 62.949219 105.246094 65.582031 C 105.246094 68.210938 105.890625 70.257812 107.171875 71.65625 C 108.457031 73.082031 110.300781 73.8125 112.671875 73.8125 C 115.042969 73.8125 116.886719 73.082031 118.167969 71.65625 C 119.453125 70.226562 120.09375 68.210938 120.09375 65.609375 C 120.09375 63.003906 119.453125 61.015625 118.167969 59.558594 C 116.886719 58.132812 115.070312 57.433594 112.699219 57.433594 Z M 112.699219 57.433594 "/>
</g>
<g clip-path="url(#clip8)" clip-rule="nonzero">
<path style=" stroke:none;fill-rule:evenodd;fill:rgb(88.238525%,31.759644%,0%);fill-opacity:1;" d="M 121.796875 57.683594 L 126.707031 65.355469 L 121.460938 73.585938 L 124.222656 73.585938 L 128.242188 67.09375 L 132.207031 73.585938 L 135.191406 73.585938 L 129.863281 65.382812 L 134.832031 57.683594 L 132.011719 57.683594 L 128.355469 63.703125 L 124.671875 57.683594 Z M 121.796875 57.683594 "/>
</g>
<path style=" stroke:none;fill-rule:evenodd;fill:rgb(88.238525%,31.759644%,0%);fill-opacity:1;" d="M 82.390625 30.554688 L 91.40625 35.761719 L 82.390625 40.96875 L 73.40625 35.761719 Z M 82.390625 27.5 L 70.753906 34.25 L 70.753906 47.714844 L 82.390625 54.464844 L 94.03125 47.714844 L 94.03125 34.25 Z M 82.390625 27.5 "/>
<path style=" stroke:none;fill-rule:evenodd;fill:rgb(88.238525%,31.759644%,0%);fill-opacity:1;" d="M 78.933594 28.3125 C 78.542969 28.3125 78.234375 28.59375 78.234375 28.984375 C 78.234375 29.351562 78.542969 29.65625 78.933594 29.65625 C 79.292969 29.65625 79.601562 29.351562 79.601562 28.984375 C 79.601562 28.59375 79.292969 28.3125 78.933594 28.3125 Z M 78.933594 28.3125 "/>
<path style=" stroke:none;fill-rule:evenodd;fill:rgb(88.238525%,31.759644%,0%);fill-opacity:1;" d="M 78.234375 23.832031 C 77.871094 23.832031 77.566406 24.113281 77.566406 24.503906 C 77.566406 24.871094 77.871094 25.179688 78.234375 25.179688 C 78.625 25.179688 78.933594 24.871094 78.933594 24.503906 C 78.933594 24.113281 78.625 23.832031 78.234375 23.832031 Z M 78.234375 23.832031 "/>
<path style=" stroke:none;fill-rule:evenodd;fill:rgb(88.238525%,31.759644%,0%);fill-opacity:1;" d="M 80.664062 33.578125 C 80.300781 33.578125 79.992188 33.882812 79.992188 34.25 C 79.992188 34.640625 80.300781 34.921875 80.664062 34.921875 C 81.050781 34.921875 81.332031 34.640625 81.332031 34.25 C 81.332031 33.882812 81.050781 33.578125 80.664062 33.578125 Z M 80.664062 33.578125 "/>
<path style=" stroke:none;fill-rule:evenodd;fill:rgb(88.238525%,31.759644%,0%);fill-opacity:1;" d="M 82.421875 22.097656 C 82.058594 22.097656 81.75 22.40625 81.75 22.796875 C 81.75 23.164062 82.058594 23.46875 82.421875 23.46875 C 82.785156 23.46875 83.089844 23.164062 83.089844 22.796875 C 83.089844 22.40625 82.8125 22.097656 82.421875 22.097656 Z M 82.421875 22.097656 "/>
<path style=" stroke:none;fill-rule:evenodd;fill:rgb(88.238525%,31.759644%,0%);fill-opacity:1;" d="M 87.917969 27.613281 C 87.554688 27.613281 87.25 27.921875 87.25 28.285156 C 87.25 28.648438 87.554688 28.957031 87.917969 28.957031 C 88.28125 28.957031 88.585938 28.648438 88.585938 28.285156 C 88.585938 27.921875 88.28125 27.613281 87.917969 27.613281 Z M 87.917969 27.613281 "/>
<path style=" stroke:none;fill-rule:evenodd;fill:rgb(88.238525%,31.759644%,0%);fill-opacity:1;" d="M 90.652344 29.65625 C 90.261719 29.65625 89.984375 29.964844 89.984375 30.328125 C 89.984375 30.695312 90.261719 31.003906 90.652344 31.003906 C 91.015625 31.003906 91.324219 30.695312 91.324219 30.328125 C 91.324219 29.964844 91.015625 29.65625 90.652344 29.65625 Z M 90.652344 29.65625 "/>
<path style=" stroke:none;fill-rule:evenodd;fill:rgb(88.238525%,31.759644%,0%);fill-opacity:1;" d="M 78.933594 9.273438 C 78.542969 9.273438 78.234375 9.582031 78.234375 9.945312 C 78.234375 10.3125 78.542969 10.617188 78.933594 10.617188 C 79.292969 10.617188 79.601562 10.3125 79.601562 9.945312 C 79.601562 9.582031 79.292969 9.273438 78.933594 9.273438 Z M 78.933594 9.273438 "/>
<path style=" stroke:none;fill-rule:evenodd;fill:rgb(88.238525%,31.759644%,0%);fill-opacity:1;" d="M 66.316406 24.898438 C 65.953125 24.898438 65.648438 25.207031 65.648438 25.597656 C 65.648438 25.960938 65.953125 26.269531 66.316406 26.269531 C 66.679688 26.269531 66.988281 25.960938 66.988281 25.597656 C 66.988281 25.207031 66.679688 24.898438 66.316406 24.898438 Z M 66.316406 24.898438 "/>
<path style=" stroke:none;fill-rule:evenodd;fill:rgb(88.238525%,31.759644%,0%);fill-opacity:1;" d="M 76.28125 23.132812 C 75.890625 23.132812 75.582031 23.441406 75.582031 23.832031 C 75.582031 24.199219 75.890625 24.503906 76.28125 24.503906 C 76.644531 24.503906 76.949219 24.199219 76.949219 23.832031 C 76.949219 23.441406 76.644531 23.132812 76.28125 23.132812 Z M 76.28125 23.132812 "/>
<path style=" stroke:none;fill-rule:evenodd;fill:rgb(88.238525%,31.759644%,0%);fill-opacity:1;" d="M 71.199219 15.070312 C 70.839844 15.070312 70.53125 15.347656 70.53125 15.742188 C 70.53125 16.105469 70.839844 16.414062 71.199219 16.414062 C 71.59375 16.414062 71.898438 16.105469 71.898438 15.742188 C 71.898438 15.378906 71.59375 15.070312 71.199219 15.070312 Z M 71.199219 15.070312 "/>
<path style=" stroke:none;fill-rule:evenodd;fill:rgb(88.238525%,31.759644%,0%);fill-opacity:1;" d="M 79.601562 13.082031 C 79.210938 13.082031 78.90625 13.390625 78.90625 13.753906 C 78.90625 14.144531 79.210938 14.425781 79.601562 14.425781 C 79.964844 14.425781 80.269531 14.144531 80.269531 13.753906 C 80.269531 13.390625 79.964844 13.082031 79.601562 13.082031 Z M 79.601562 13.082031 "/>
<path style=" stroke:none;fill-rule:evenodd;fill:rgb(88.238525%,31.759644%,0%);fill-opacity:1;" d="M 76.949219 25.597656 C 76.195312 25.597656 75.582031 26.1875 75.582031 26.941406 C 75.582031 27.667969 76.195312 28.285156 76.949219 28.285156 C 77.675781 28.285156 78.289062 27.667969 78.289062 26.941406 C 78.289062 26.1875 77.675781 25.597656 76.949219 25.597656 Z M 76.949219 25.597656 "/>
<path style=" stroke:none;fill-rule:evenodd;fill:rgb(88.238525%,31.759644%,0%);fill-opacity:1;" d="M 66.316406 18.457031 C 65.5625 18.457031 64.976562 19.074219 64.976562 19.800781 C 64.976562 20.558594 65.5625 21.171875 66.316406 21.171875 C 67.070312 21.171875 67.65625 20.558594 67.65625 19.800781 C 67.65625 19.074219 67.070312 18.457031 66.316406 18.457031 Z M 66.316406 18.457031 "/>
<path style=" stroke:none;fill-rule:evenodd;fill:rgb(88.238525%,31.759644%,0%);fill-opacity:1;" d="M 94.824219 19.8125 C 94.65625 19.8125 94.484375 19.875 94.363281 20 C 94.085938 20.277344 94.085938 20.699219 94.363281 20.949219 C 94.492188 21.09375 94.664062 21.164062 94.84375 21.164062 C 95.007812 21.164062 95.179688 21.101562 95.3125 20.976562 C 95.566406 20.699219 95.566406 20.277344 95.3125 20.027344 C 95.183594 19.882812 95.003906 19.8125 94.824219 19.8125 Z M 94.824219 19.8125 "/>
<path style=" stroke:none;fill-rule:evenodd;fill:rgb(88.238525%,31.759644%,0%);fill-opacity:1;" d="M 93.328125 27.625 C 93.160156 27.625 92.992188 27.6875 92.855469 27.808594 C 92.605469 28.089844 92.605469 28.507812 92.855469 28.789062 C 92.984375 28.917969 93.15625 28.976562 93.332031 28.976562 C 93.507812 28.976562 93.679688 28.917969 93.804688 28.789062 C 94.085938 28.507812 94.085938 28.089844 93.804688 27.839844 C 93.675781 27.695312 93.503906 27.625 93.328125 27.625 Z M 93.328125 27.625 "/>
<path style=" stroke:none;fill-rule:evenodd;fill:rgb(88.238525%,31.759644%,0%);fill-opacity:1;" d="M 89.972656 12.417969 C 89.800781 12.417969 89.632812 12.480469 89.507812 12.605469 C 89.230469 12.859375 89.230469 13.304688 89.480469 13.558594 C 89.621094 13.699219 89.792969 13.769531 89.96875 13.769531 C 90.144531 13.769531 90.316406 13.699219 90.457031 13.558594 C 90.707031 13.304688 90.707031 12.886719 90.457031 12.605469 C 90.316406 12.480469 90.144531 12.417969 89.972656 12.417969 Z M 89.972656 12.417969 "/>
<path style=" stroke:none;fill-rule:evenodd;fill:rgb(88.238525%,31.759644%,0%);fill-opacity:1;" d="M 90.640625 16.316406 C 90.472656 16.316406 90.304688 16.386719 90.179688 16.527344 C 89.898438 16.777344 89.898438 17.199219 90.148438 17.476562 C 90.289062 17.605469 90.464844 17.667969 90.640625 17.667969 C 90.8125 17.667969 90.988281 17.605469 91.128906 17.476562 C 91.378906 17.226562 91.378906 16.804688 91.128906 16.527344 C 90.988281 16.386719 90.8125 16.316406 90.640625 16.316406 Z M 90.640625 16.316406 "/>
<path style=" stroke:none;fill-rule:evenodd;fill:rgb(88.238525%,31.759644%,0%);fill-opacity:1;" d="M 84.640625 16.960938 C 84.472656 16.960938 84.304688 17.03125 84.179688 17.171875 C 83.898438 17.421875 83.898438 17.84375 84.148438 18.121094 C 84.289062 18.246094 84.464844 18.3125 84.636719 18.3125 C 84.804688 18.3125 84.972656 18.246094 85.097656 18.121094 C 85.378906 17.871094 85.378906 17.421875 85.128906 17.171875 C 84.988281 17.03125 84.8125 16.960938 84.640625 16.960938 Z M 84.640625 16.960938 "/>
<path style=" stroke:none;fill-rule:evenodd;fill:rgb(88.238525%,31.759644%,0%);fill-opacity:1;" d="M 83.992188 36.496094 C 83.824219 36.496094 83.648438 36.558594 83.507812 36.6875 C 83.257812 36.964844 83.257812 37.386719 83.507812 37.636719 C 83.636719 37.78125 83.816406 37.851562 83.996094 37.851562 C 84.167969 37.851562 84.335938 37.789062 84.457031 37.664062 C 84.734375 37.386719 84.734375 36.964844 84.457031 36.6875 C 84.332031 36.558594 84.164062 36.496094 83.992188 36.496094 Z M 83.992188 36.496094 "/>
<path style=" stroke:none;fill-rule:evenodd;fill:rgb(88.238525%,31.759644%,0%);fill-opacity:1;" d="M 93.738281 15.644531 C 93.5625 15.644531 93.386719 15.714844 93.25 15.855469 C 92.996094 16.105469 92.996094 16.527344 93.25 16.804688 C 93.386719 16.929688 93.5625 16.996094 93.734375 16.996094 C 93.902344 16.996094 94.070312 16.929688 94.195312 16.804688 C 94.476562 16.554688 94.476562 16.105469 94.226562 15.855469 C 94.085938 15.714844 93.910156 15.644531 93.738281 15.644531 Z M 93.738281 15.644531 "/>
<path style=" stroke:none;fill-rule:evenodd;fill:rgb(88.238525%,31.759644%,0%);fill-opacity:1;" d="M 92.003906 17.640625 C 91.65625 17.640625 91.308594 17.773438 91.042969 18.039062 C 90.511719 18.542969 90.511719 19.410156 91.042969 19.941406 C 91.292969 20.207031 91.636719 20.339844 91.980469 20.339844 C 92.328125 20.339844 92.675781 20.207031 92.941406 19.941406 C 93.472656 19.4375 93.472656 18.570312 92.941406 18.039062 C 92.691406 17.773438 92.347656 17.640625 92.003906 17.640625 Z M 92.003906 17.640625 "/>
<path style=" stroke:none;fill-rule:evenodd;fill:rgb(88.238525%,31.759644%,0%);fill-opacity:1;" d="M 99.15625 25.988281 C 98.863281 25.988281 98.5625 26.101562 98.328125 26.324219 C 97.882812 26.773438 97.882812 27.5 98.328125 27.949219 C 98.550781 28.171875 98.84375 28.285156 99.136719 28.285156 C 99.429688 28.285156 99.722656 28.171875 99.945312 27.949219 C 100.390625 27.5 100.390625 26.773438 99.945312 26.324219 C 99.738281 26.101562 99.449219 25.988281 99.15625 25.988281 Z M 99.15625 25.988281 "/>
<path style=" stroke:none;fill-rule:evenodd;fill:rgb(88.238525%,31.759644%,0%);fill-opacity:1;" d="M 76.894531 17.84375 C 76.601562 17.84375 76.308594 17.953125 76.085938 18.179688 C 75.636719 18.597656 75.636719 19.324219 76.058594 19.800781 C 76.28125 20.027344 76.574219 20.136719 76.867188 20.136719 C 77.160156 20.136719 77.453125 20.027344 77.675781 19.800781 C 78.152344 19.355469 78.152344 18.625 77.703125 18.179688 C 77.480469 17.953125 77.1875 17.84375 76.894531 17.84375 Z M 76.894531 17.84375 "/>
<path style=" stroke:none;fill-rule:evenodd;fill:rgb(88.238525%,31.759644%,0%);fill-opacity:1;" d="M 72.234375 23.582031 L 70.503906 25.066406 L 68.550781 23.890625 L 70.03125 25.625 L 68.855469 27.585938 L 70.589844 26.101562 L 72.539062 27.277344 L 71.0625 25.542969 Z M 72.234375 23.582031 "/>
<path style=" stroke:none;fill-rule:evenodd;fill:rgb(88.238525%,31.759644%,0%);fill-opacity:1;" d="M 99.609375 21.144531 L 100.308594 22.714844 L 99.082031 23.863281 L 100.617188 23.164062 L 101.789062 24.421875 L 101.089844 22.855469 L 102.347656 21.707031 L 100.785156 22.40625 Z M 99.609375 21.144531 "/>
<path style=" stroke:none;fill-rule:evenodd;fill:rgb(88.238525%,31.759644%,0%);fill-opacity:1;" d="M 86.328125 31.589844 L 84.597656 33.074219 L 82.644531 31.898438 L 84.125 33.632812 L 82.949219 35.566406 L 84.679688 34.109375 L 86.632812 35.285156 L 85.15625 33.550781 Z M 86.328125 31.589844 "/>
<g clip-path="url(#clip9)" clip-rule="nonzero">
<path style=" stroke:none;fill-rule:evenodd;fill:rgb(88.238525%,31.759644%,0%);fill-opacity:1;" d="M 84.09375 8.210938 L 82.363281 9.664062 L 80.4375 8.492188 L 81.890625 10.226562 L 80.746094 12.1875 L 82.476562 10.730469 L 84.402344 11.878906 L 82.949219 10.140625 Z M 84.09375 8.210938 "/>
</g>
<path style=" stroke:none;fill-rule:evenodd;fill:rgb(88.238525%,31.759644%,0%);fill-opacity:1;" d="M 77.257812 14.0625 L 76.699219 15.460938 L 75.21875 15.347656 L 76.589844 15.910156 L 76.503906 17.394531 L 77.0625 16.023438 L 78.542969 16.105469 L 77.171875 15.546875 Z M 77.257812 14.0625 "/>
<path style=" stroke:none;fill-rule:evenodd;fill:rgb(88.238525%,31.759644%,0%);fill-opacity:1;" d="M 64.671875 24.871094 L 63.917969 26.15625 L 62.46875 25.878906 L 63.75 26.605469 L 63.441406 28.0625 L 64.195312 26.773438 L 65.648438 27.082031 L 64.363281 26.324219 Z M 64.671875 24.871094 "/>
<path style=" stroke:none;fill-rule:evenodd;fill:rgb(88.238525%,31.759644%,0%);fill-opacity:1;" d="M 88.253906 20.726562 L 88.140625 22.992188 L 85.964844 23.609375 L 88.226562 23.722656 L 88.867188 25.90625 L 88.949219 23.636719 L 91.128906 23.023438 L 88.867188 22.910156 Z M 88.253906 20.726562 "/>
</g>
</svg>
