<?xml version="1.0" encoding="UTF-8"?>
<svg xmlns="http://www.w3.org/2000/svg" xmlns:xlink="http://www.w3.org/1999/xlink" width="165pt" height="82.499998pt" viewBox="0 0 165 82.499998" version="1.2">
<defs>
<clipPath id="clip1">
  <path d="M 0.496094 0 L 164.503906 0 L 164.503906 82.003906 L 0.496094 82.003906 Z M 0.496094 0 "/>
</clipPath>
<clipPath id="clip2">
  <path d="M 5.375 26 L 32 26 L 32 61.820312 L 5.375 61.820312 Z M 5.375 26 "/>
</clipPath>
<clipPath id="clip3">
  <path d="M 83 26 L 90 26 L 90 61.820312 L 83 61.820312 Z M 83 26 "/>
</clipPath>
<clipPath id="clip4">
  <path d="M 97 26 L 125 26 L 125 61.820312 L 97 61.820312 Z M 97 26 "/>
</clipPath>
<clipPath id="clip5">
  <path d="M 128 26 L 159.691406 26 L 159.691406 61.820312 L 128 61.820312 Z M 128 26 "/>
</clipPath>
<clipPath id="clip6">
  <path d="M 38 26 L 75 26 L 75 61.820312 L 38 61.820312 Z M 38 26 "/>
</clipPath>
<clipPath id="clip7">
  <path d="M 47 20.109375 L 81 20.109375 L 81 50 L 47 50 Z M 47 20.109375 "/>
</clipPath>
</defs>
<g id="surface1">
<g clip-path="url(#clip1)" clip-rule="nonzero">
<path style=" stroke:none;fill-rule:nonzero;fill:rgb(100%,100%,100%);fill-opacity:1;" d="M 0.496094 0 L 164.503906 0 L 164.503906 82.003906 L 0.496094 82.003906 Z M 0.496094 0 "/>
<path style=" stroke:none;fill-rule:nonzero;fill:rgb(100%,100%,100%);fill-opacity:1;" d="M 0.496094 0 L 164.503906 0 L 164.503906 82.003906 L 0.496094 82.003906 Z M 0.496094 0 "/>
</g>
<g clip-path="url(#clip2)" clip-rule="nonzero">
<path style=" stroke:none;fill-rule:nonzero;fill:rgb(29.40979%,30.979919%,32.939148%);fill-opacity:1;" d="M 6.558594 57.363281 C 6.316406 57.1875 6.105469 56.980469 5.925781 56.738281 C 5.75 56.496094 5.613281 56.234375 5.519531 55.949219 C 5.425781 55.664062 5.378906 55.371094 5.378906 55.074219 C 5.378906 54.773438 5.425781 54.480469 5.519531 54.195312 C 5.609375 53.910156 5.746094 53.648438 5.921875 53.40625 C 6.101562 53.164062 6.3125 52.957031 6.554688 52.78125 C 6.800781 52.605469 7.066406 52.472656 7.351562 52.382812 C 7.636719 52.292969 7.933594 52.25 8.230469 52.25 C 8.886719 52.222656 9.480469 52.402344 10.011719 52.789062 C 11.363281 53.929688 12.867188 54.808594 14.527344 55.417969 C 16.191406 56.027344 17.90625 56.335938 19.675781 56.339844 C 23.421875 56.339844 25.789062 54.5625 25.789062 52.007812 L 25.789062 51.910156 C 25.789062 49.453125 24.410156 48.125 17.964844 46.652344 C 10.617188 44.875 6.472656 42.75 6.472656 36.367188 L 6.472656 36.269531 C 6.472656 30.417969 11.363281 26.292969 18.257812 26.292969 C 20.210938 26.246094 22.121094 26.496094 23.996094 27.039062 C 25.871094 27.585938 27.621094 28.398438 29.242188 29.480469 C 29.664062 29.734375 29.996094 30.074219 30.234375 30.507812 C 30.472656 30.9375 30.585938 31.398438 30.574219 31.890625 C 30.570312 32.265625 30.496094 32.625 30.351562 32.972656 C 30.207031 33.316406 30 33.621094 29.730469 33.886719 C 29.460938 34.148438 29.152344 34.351562 28.804688 34.488281 C 28.453125 34.628906 28.09375 34.695312 27.714844 34.691406 C 27.144531 34.699219 26.617188 34.550781 26.132812 34.25 C 23.75 32.582031 21.101562 31.714844 18.1875 31.648438 C 14.640625 31.648438 12.566406 33.460938 12.566406 35.726562 L 12.566406 35.824219 C 12.566406 38.476562 14.140625 39.65625 20.800781 41.238281 C 28.097656 43.003906 31.855469 45.609375 31.855469 51.316406 L 31.855469 51.414062 C 31.855469 57.851562 26.765625 61.695312 19.519531 61.695312 C 17.179688 61.695312 14.902344 61.324219 12.6875 60.582031 C 10.46875 59.84375 8.425781 58.769531 6.558594 57.363281 "/>
</g>
<g clip-path="url(#clip3)" clip-rule="nonzero">
<path style=" stroke:none;fill-rule:nonzero;fill:rgb(29.40979%,30.979919%,32.939148%);fill-opacity:1;" d="M 83.675781 29.257812 C 83.675781 28.855469 83.75 28.472656 83.90625 28.101562 C 84.058594 27.730469 84.277344 27.402344 84.5625 27.121094 C 84.847656 26.839844 85.175781 26.621094 85.546875 26.464844 C 85.917969 26.3125 86.304688 26.238281 86.707031 26.238281 C 87.109375 26.238281 87.496094 26.3125 87.867188 26.464844 C 88.238281 26.621094 88.5625 26.839844 88.847656 27.121094 C 89.132812 27.402344 89.351562 27.730469 89.507812 28.101562 C 89.660156 28.472656 89.738281 28.855469 89.738281 29.257812 L 89.738281 58.816406 C 89.738281 59.21875 89.660156 59.601562 89.507812 59.972656 C 89.351562 60.34375 89.132812 60.671875 88.847656 60.953125 C 88.5625 61.234375 88.238281 61.453125 87.867188 61.609375 C 87.496094 61.761719 87.109375 61.835938 86.707031 61.835938 C 86.304688 61.835938 85.917969 61.761719 85.546875 61.609375 C 85.175781 61.453125 84.847656 61.234375 84.5625 60.953125 C 84.277344 60.671875 84.058594 60.34375 83.90625 59.972656 C 83.75 59.601562 83.675781 59.21875 83.675781 58.816406 Z M 83.675781 29.257812 "/>
</g>
<g clip-path="url(#clip4)" clip-rule="nonzero">
<path style=" stroke:none;fill-rule:nonzero;fill:rgb(29.40979%,30.979919%,32.939148%);fill-opacity:1;" d="M 98.835938 57.363281 C 98.460938 57.097656 98.171875 56.757812 97.960938 56.351562 C 97.753906 55.941406 97.648438 55.507812 97.652344 55.050781 C 97.671875 54.515625 97.832031 54.019531 98.125 53.570312 C 98.417969 53.121094 98.808594 52.777344 99.292969 52.542969 C 99.777344 52.304688 100.289062 52.210938 100.824219 52.253906 C 101.359375 52.296875 101.847656 52.476562 102.289062 52.789062 C 103.640625 53.933594 105.152344 54.816406 106.820312 55.425781 C 108.488281 56.035156 110.214844 56.339844 111.988281 56.339844 C 115.734375 56.339844 118.101562 54.5625 118.101562 52.007812 L 118.101562 51.910156 C 118.101562 49.453125 116.722656 48.125 110.277344 46.652344 C 102.933594 44.875 98.785156 42.75 98.785156 36.367188 L 98.785156 36.269531 C 98.785156 30.417969 103.675781 26.292969 110.570312 26.292969 C 112.515625 26.25 114.421875 26.503906 116.289062 27.046875 C 118.15625 27.589844 119.898438 28.402344 121.515625 29.480469 C 121.941406 29.734375 122.269531 30.074219 122.507812 30.507812 C 122.746094 30.9375 122.859375 31.398438 122.847656 31.890625 C 122.847656 32.265625 122.773438 32.625 122.625 32.972656 C 122.480469 33.316406 122.273438 33.621094 122.003906 33.886719 C 121.738281 34.148438 121.429688 34.351562 121.078125 34.488281 C 120.730469 34.628906 120.367188 34.695312 119.992188 34.691406 C 119.421875 34.699219 118.890625 34.550781 118.40625 34.25 C 116.023438 32.582031 113.375 31.714844 110.464844 31.648438 C 106.914062 31.648438 104.839844 33.460938 104.839844 35.726562 L 104.839844 35.824219 C 104.839844 38.476562 106.414062 39.65625 113.074219 41.238281 C 120.371094 43.003906 124.128906 45.609375 124.128906 51.316406 L 124.128906 51.414062 C 124.128906 57.851562 119.042969 61.695312 111.792969 61.695312 C 109.453125 61.695312 107.175781 61.324219 104.957031 60.585938 C 102.734375 59.84375 100.691406 58.769531 98.824219 57.363281 "/>
</g>
<g clip-path="url(#clip5)" clip-rule="nonzero">
<path style=" stroke:none;fill-rule:nonzero;fill:rgb(29.40979%,30.979919%,32.939148%);fill-opacity:1;" d="M 141.070312 47.558594 L 129.183594 31.277344 C 128.730469 30.644531 128.5 29.9375 128.492188 29.160156 C 128.492188 28.761719 128.570312 28.375 128.726562 28.007812 C 128.882812 27.640625 129.105469 27.320312 129.394531 27.042969 C 129.683594 26.765625 130.015625 26.558594 130.390625 26.417969 C 130.765625 26.277344 131.152344 26.214844 131.550781 26.234375 C 132.167969 26.257812 132.738281 26.433594 133.261719 26.757812 C 133.785156 27.082031 134.195312 27.515625 134.488281 28.058594 L 144.101562 41.871094 L 153.882812 28 C 154.175781 27.457031 154.582031 27.023438 155.105469 26.699219 C 155.628906 26.375 156.199219 26.199219 156.816406 26.175781 C 157.207031 26.167969 157.585938 26.234375 157.949219 26.378906 C 158.3125 26.527344 158.632812 26.738281 158.910156 27.011719 C 159.1875 27.289062 159.398438 27.609375 159.542969 27.972656 C 159.691406 28.332031 159.757812 28.710938 159.75 29.101562 C 159.714844 29.917969 159.433594 30.636719 158.910156 31.265625 L 147.144531 47.433594 L 147.144531 58.816406 C 147.144531 59.21875 147.066406 59.605469 146.914062 59.976562 C 146.757812 60.347656 146.539062 60.675781 146.253906 60.960938 C 145.96875 61.242188 145.640625 61.460938 145.269531 61.617188 C 144.894531 61.769531 144.507812 61.847656 144.105469 61.847656 C 143.703125 61.847656 143.316406 61.769531 142.945312 61.617188 C 142.570312 61.460938 142.242188 61.242188 141.957031 60.960938 C 141.675781 60.675781 141.453125 60.347656 141.300781 59.976562 C 141.144531 59.605469 141.070312 59.21875 141.070312 58.816406 Z M 141.070312 47.558594 "/>
</g>
<g clip-path="url(#clip6)" clip-rule="nonzero">
<path style=" stroke:none;fill-rule:nonzero;fill:rgb(29.40979%,30.979919%,32.939148%);fill-opacity:1;" d="M 66.996094 38.972656 C 67.65625 40.578125 67.984375 42.246094 67.976562 43.980469 L 67.976562 44.085938 C 67.976562 50.777344 63.210938 56.210938 56.355469 56.210938 C 49.5 56.210938 44.617188 50.699219 44.617188 44.007812 L 44.617188 43.910156 C 44.617188 37.226562 49.402344 31.765625 56.257812 31.765625 C 57.515625 31.757812 58.738281 31.953125 59.933594 32.339844 C 61.226562 30.757812 62.59375 29.238281 64.023438 27.785156 C 61.582031 26.714844 59.03125 26.1875 56.363281 26.203125 C 55.773438 26.1875 55.183594 26.203125 54.59375 26.25 C 54.003906 26.292969 53.417969 26.367188 52.835938 26.472656 C 52.257812 26.574219 51.679688 26.707031 51.113281 26.867188 C 50.542969 27.03125 49.984375 27.21875 49.433594 27.4375 C 48.886719 27.652344 48.347656 27.898438 47.824219 28.167969 C 47.296875 28.4375 46.789062 28.734375 46.292969 29.054688 C 45.796875 29.375 45.320312 29.722656 44.859375 30.089844 C 44.398438 30.460938 43.957031 30.851562 43.535156 31.265625 C 43.113281 31.679688 42.714844 32.113281 42.335938 32.566406 C 41.957031 33.019531 41.605469 33.492188 41.273438 33.980469 C 40.945312 34.46875 40.636719 34.972656 40.359375 35.492188 C 40.078125 36.011719 39.824219 36.542969 39.597656 37.085938 C 39.371094 37.632812 39.175781 38.1875 39.003906 38.75 C 38.832031 39.316406 38.691406 39.886719 38.578125 40.464844 C 38.464844 41.042969 38.378906 41.625 38.324219 42.214844 C 38.269531 42.800781 38.246094 43.390625 38.25 43.980469 L 38.25 44.085938 C 38.242188 44.671875 38.265625 45.257812 38.316406 45.84375 C 38.367188 46.429688 38.445312 47.007812 38.554688 47.585938 C 38.667969 48.164062 38.804688 48.734375 38.972656 49.296875 C 39.140625 49.859375 39.335938 50.410156 39.558594 50.953125 C 39.78125 51.496094 40.03125 52.027344 40.308594 52.546875 C 40.585938 53.066406 40.886719 53.566406 41.214844 54.054688 C 41.542969 54.542969 41.894531 55.011719 42.269531 55.464844 C 42.644531 55.917969 43.042969 56.351562 43.460938 56.761719 C 43.878906 57.175781 44.320312 57.566406 44.777344 57.933594 C 45.234375 58.300781 45.710938 58.644531 46.203125 58.964844 C 46.699219 59.285156 47.207031 59.582031 47.730469 59.851562 C 48.25 60.121094 48.789062 60.363281 49.335938 60.578125 C 49.882812 60.792969 50.4375 60.980469 51.003906 61.140625 C 51.570312 61.300781 52.144531 61.433594 52.726562 61.535156 C 53.304688 61.636719 53.886719 61.707031 54.476562 61.75 C 55.0625 61.792969 55.648438 61.808594 56.238281 61.792969 C 56.828125 61.808594 57.421875 61.792969 58.011719 61.746094 C 58.601562 61.703125 59.1875 61.625 59.769531 61.523438 C 60.351562 61.417969 60.929688 61.285156 61.496094 61.125 C 62.066406 60.964844 62.628906 60.773438 63.175781 60.558594 C 63.726562 60.339844 64.265625 60.09375 64.792969 59.824219 C 65.316406 59.550781 65.828125 59.253906 66.324219 58.933594 C 66.820312 58.609375 67.296875 58.265625 67.757812 57.894531 C 68.21875 57.523438 68.660156 57.132812 69.082031 56.714844 C 69.503906 56.300781 69.902344 55.867188 70.28125 55.414062 C 70.660156 54.957031 71.011719 54.488281 71.34375 53.996094 C 71.671875 53.507812 71.976562 53 72.257812 52.480469 C 72.535156 51.960938 72.789062 51.425781 73.015625 50.882812 C 73.242188 50.335938 73.4375 49.78125 73.609375 49.214844 C 73.777344 48.648438 73.917969 48.078125 74.03125 47.496094 C 74.144531 46.917969 74.226562 46.332031 74.28125 45.746094 C 74.335938 45.15625 74.359375 44.570312 74.351562 43.980469 L 74.351562 43.882812 C 74.359375 42.125 74.113281 40.40625 73.613281 38.722656 C 73.113281 37.042969 72.382812 35.464844 71.417969 34 C 69.84375 35.566406 68.367188 37.226562 66.996094 38.972656 "/>
</g>
<g clip-path="url(#clip7)" clip-rule="nonzero">
<path style=" stroke:none;fill-rule:nonzero;fill:rgb(0%,71.759033%,30.979919%);fill-opacity:1;" d="M 79.769531 21.441406 C 79.558594 21.117188 79.289062 20.84375 78.96875 20.625 C 78.644531 20.410156 78.292969 20.257812 77.910156 20.179688 C 77.53125 20.101562 77.148438 20.097656 76.765625 20.171875 C 76.382812 20.246094 76.027344 20.390625 75.703125 20.601562 C 71.753906 23.191406 68.140625 26.183594 64.867188 29.582031 C 61.59375 32.980469 58.742188 36.699219 56.304688 40.738281 C 55 38.582031 53.566406 36.511719 52.011719 34.523438 C 50.144531 35.417969 48.714844 36.777344 47.726562 38.59375 C 49.996094 41.570312 51.953125 44.734375 53.597656 48.09375 C 53.832031 48.625 54.195312 49.046875 54.683594 49.363281 C 55.171875 49.675781 55.707031 49.832031 56.285156 49.832031 C 57.035156 49.832031 57.6875 49.578125 58.242188 49.082031 C 58.582031 48.777344 58.835938 48.410156 59.007812 47.988281 C 61.257812 43.429688 64.070312 39.246094 67.445312 35.441406 C 70.824219 31.632812 74.640625 28.335938 78.902344 25.550781 C 79.226562 25.335938 79.5 25.070312 79.722656 24.746094 C 79.941406 24.425781 80.089844 24.070312 80.171875 23.691406 C 80.25 23.308594 80.25 22.925781 80.175781 22.542969 C 80.101562 22.160156 79.957031 21.804688 79.742188 21.480469 "/>
</g>
</g>
</svg>
